<svg xmlns="http://www.w3.org/2000/svg" width="107" height="19" viewBox="0 0 107 19" fill="none">
  <path fill-rule="evenodd" clip-rule="evenodd" d="M81.6529 16.2371V0.5L79.6218 0.837983V7.00215C79.1518 6.45494 78.595 6.02682 77.9512 5.72103C77.3074 5.41524 76.596 5.26073 75.8235 5.26073C74.8418 5.26073 73.9276 5.5118 73.0907 6.01073C72.2506 6.50966 71.5875 7.18884 71.095 8.04185C70.6025 8.89485 70.3578 9.83798 70.3578 10.8712C70.3578 11.9045 70.6025 12.8509 71.095 13.7135C71.5875 14.5762 72.2506 15.2521 73.0907 15.7446C73.9276 16.2371 74.8385 16.4818 75.8235 16.4818C76.6154 16.4818 77.3364 16.324 77.9898 16.0086C78.6433 15.6931 79.2033 15.2521 79.6701 14.6888V16.2371H81.6529ZM79.2677 12.78C78.9362 13.3594 78.4888 13.8197 77.9254 14.1577C77.3589 14.4957 76.7409 14.6663 76.0617 14.6663C75.3825 14.6663 74.7613 14.4957 74.198 14.1577C73.6347 13.8197 73.1905 13.3594 72.8686 12.78C72.5467 12.1974 72.3857 11.5601 72.3857 10.868C72.3857 10.176 72.5467 9.54185 72.8686 8.96888C73.1905 8.39592 73.6347 7.93884 74.198 7.60086C74.7645 7.26288 75.3825 7.09228 76.0617 7.09228C76.7409 7.09228 77.3621 7.26288 77.9254 7.60086C78.4888 7.94206 78.9362 8.39592 79.2677 8.96888C79.5993 9.54185 79.7634 10.1727 79.7634 10.868C79.7634 11.5633 79.5993 12.2006 79.2677 12.78Z" fill="white"/>
  <path d="M43.114 12.9473V7.31751H46.1558V5.52781H43.1075V2.09326L41.0764 3.22953V5.52781H39.7953L39.4573 7.31751H41.0797V13.1244C41.0797 14.1544 41.3694 14.9656 41.952 15.5546C42.5346 16.1437 43.3232 16.4366 44.3243 16.4366C44.6784 16.4366 45.0196 16.4012 45.3415 16.3272C45.6633 16.2531 45.937 16.1694 46.1623 16.0729V14.2574C45.953 14.354 45.7084 14.4345 45.4251 14.4988C45.1451 14.5632 44.8812 14.5954 44.6397 14.5954C44.1537 14.5954 43.7803 14.4538 43.5131 14.1705C43.246 13.8873 43.114 13.4785 43.114 12.9473Z" fill="white"/>
  <path fill-rule="evenodd" clip-rule="evenodd" d="M27.9691 14.5441L27.2449 12.8026V12.8059C26.0668 14.0966 24.7277 14.7404 23.2277 14.7404C22.423 14.7404 21.7116 14.5473 21.1 14.161C20.4852 13.7747 20.0346 13.2501 19.7449 12.5902L28.2621 9.8316C28.1494 8.911 27.8565 8.10628 27.3801 7.411C26.9037 6.71894 26.2985 6.18461 25.5646 5.81444C24.8307 5.44426 24.0196 5.25757 23.1344 5.25757C22.085 5.25757 21.129 5.50864 20.2663 6.00757C19.4037 6.5065 18.7213 7.18568 18.2224 8.03868C17.7234 8.89491 17.4724 9.86057 17.4724 10.8938C17.4724 11.9271 17.717 12.8734 18.2095 13.7361C18.702 14.5988 19.3876 15.2747 20.2663 15.7672C21.1451 16.2597 22.1236 16.5044 23.2052 16.5044C24.0904 16.5044 24.9369 16.3337 25.7449 15.9958C26.5496 15.6578 27.2932 15.1717 27.9691 14.5441ZM19.8801 8.93353C20.2116 8.33482 20.6623 7.86486 21.2352 7.51722H21.232C21.805 7.16959 22.4391 6.99577 23.1312 6.99577C23.7942 6.99577 24.3833 7.15349 24.8983 7.46894C25.4166 7.78439 25.7867 8.21572 26.0121 8.76293L19.3844 10.9164C19.3844 10.1921 19.5485 9.52903 19.8801 8.93353Z" fill="white"/>
  <path d="M33.8015 12.0269L36.6792 16.2372H39.0805L35.0408 10.6235L38.7168 5.51831H36.3702L33.8047 9.24256L31.265 5.51831H28.8927L32.5944 10.6235L28.529 16.2372H30.9238L33.8015 12.0269Z" fill="white"/>
  <path fill-rule="evenodd" clip-rule="evenodd" d="M57.4599 14.5441L56.7356 12.8026V12.8059C55.5575 14.0966 54.2184 14.7404 52.7184 14.7404C51.9137 14.7404 51.2023 14.5473 50.5908 14.161C49.976 13.7747 49.5253 13.2501 49.2356 12.5902L57.7528 9.8316C57.6401 8.911 57.3472 8.10628 56.8708 7.411C56.3944 6.71894 55.7893 6.18461 55.0553 5.81444C54.3214 5.44426 53.5103 5.25757 52.6251 5.25757C51.5757 5.25757 50.6197 5.50864 49.7571 6.00757C48.8944 6.5065 48.212 7.18568 47.7131 8.03868C47.2141 8.89491 46.9631 9.86057 46.9631 10.8938C46.9631 11.9271 47.2077 12.8734 47.7002 13.7361C48.1927 14.5988 48.8783 15.2747 49.7571 15.7672C50.6358 16.2597 51.6144 16.5044 52.6959 16.5044C53.5811 16.5044 54.4277 16.3337 55.2356 15.9958C56.0403 15.6578 56.7839 15.1717 57.4599 14.5441ZM49.3676 8.93353C49.6991 8.33482 50.1498 7.86486 50.7227 7.51722H50.7195C51.2925 7.16959 51.9266 6.99577 52.6187 6.99577C53.2817 6.99577 53.8708 7.15349 54.3858 7.46894C54.9041 7.78439 55.2742 8.21572 55.4996 8.76293L48.8719 10.9164C48.8719 10.1921 49.036 9.52903 49.3676 8.93353Z" fill="white"/>
  <path d="M66.7986 5.78873C67.4263 6.14281 67.9188 6.66427 68.2729 7.34989C68.627 8.03551 68.804 8.83701 68.804 9.75761V16.2404H66.7729V9.95075C66.7729 9.04624 66.5379 8.34774 66.0712 7.8456C65.6044 7.34667 64.9735 7.0956 64.1849 7.0956C63.6377 7.0956 63.1452 7.22113 62.7107 7.47221C62.2761 7.72328 61.9349 8.08057 61.6935 8.54731C61.4521 9.01405 61.3298 9.55482 61.3298 10.1696V16.2404H59.2986V5.66641L61.2332 5.35096V6.77693C61.6356 6.29409 62.128 5.91748 62.7074 5.65354C63.2868 5.38637 63.9242 5.25439 64.6195 5.25439C65.4435 5.25439 66.1677 5.43143 66.7954 5.78551L66.7986 5.78873Z" fill="white"/>
  <path fill-rule="evenodd" clip-rule="evenodd" d="M92.8032 12.8026L93.5275 14.5441C92.8515 15.1717 92.1079 15.6578 91.3032 15.9958C90.4953 16.3337 89.6487 16.5044 88.7635 16.5044C87.682 16.5044 86.7034 16.2597 85.8247 15.7672C84.9459 15.2747 84.2603 14.5988 83.7678 13.7361C83.2753 12.8734 83.0307 11.9271 83.0307 10.8938C83.0307 9.86057 83.2818 8.89491 83.7807 8.03868C84.2796 7.18568 84.962 6.5065 85.8247 6.00757C86.6873 5.50864 87.6434 5.25757 88.6927 5.25757C89.5779 5.25757 90.3891 5.44426 91.123 5.81444C91.8569 6.18461 92.462 6.71894 92.9384 7.411C93.4148 8.10628 93.7077 8.911 93.8204 9.8316L85.3032 12.5902C85.5929 13.2501 86.0436 13.7747 86.6584 14.161C87.27 14.5473 87.9813 14.7404 88.7861 14.7404C90.2861 14.7404 91.6251 14.0966 92.8032 12.8059V12.8026ZM86.7936 7.51722C86.2206 7.86486 85.77 8.33482 85.4384 8.93353C85.1069 9.52903 84.9427 10.1921 84.9427 10.9164L91.5704 8.76293C91.3451 8.21572 90.9749 7.78439 90.4567 7.46894C89.9416 7.15349 89.3526 6.99577 88.6895 6.99577C87.9974 6.99577 87.3633 7.16959 86.7904 7.51722H86.7936Z" fill="white"/>
  <path fill-rule="evenodd" clip-rule="evenodd" d="M106.133 16.2371V0.5L104.102 0.837983V7.00215C103.632 6.45494 103.075 6.02682 102.431 5.72103C101.788 5.41524 101.076 5.26073 100.304 5.26073C99.322 5.26073 98.4078 5.5118 97.5709 6.01073C96.7308 6.50966 96.0677 7.18884 95.5752 8.04185C95.0827 8.89485 94.8381 9.83798 94.8381 10.8712C94.8381 11.9045 95.0827 12.8509 95.5752 13.7135C96.0677 14.5762 96.7308 15.2521 97.5709 15.7446C98.4078 16.2371 99.3188 16.4818 100.304 16.4818C101.096 16.4818 101.817 16.324 102.47 16.0086C103.123 15.6931 103.684 15.2521 104.15 14.6888V16.2371H106.133ZM103.751 12.78C103.42 13.3594 102.972 13.8197 102.409 14.1577C101.842 14.4957 101.224 14.6663 100.545 14.6663C99.866 14.6663 99.2447 14.4957 98.6814 14.1577C98.1181 13.8197 97.6739 13.3594 97.352 12.78C97.0301 12.1974 96.8692 11.5601 96.8692 10.868C96.8692 10.176 97.0301 9.54185 97.352 8.96888C97.6739 8.39592 98.1181 7.93884 98.6814 7.60086C99.2479 7.26288 99.866 7.09228 100.545 7.09228C101.224 7.09228 101.846 7.26288 102.409 7.60086C102.972 7.94206 103.42 8.39592 103.751 8.96888C104.083 9.54185 104.247 10.1727 104.247 10.868C104.247 11.5633 104.083 12.2006 103.751 12.78Z" fill="white"/>
  <path d="M7.6157 5.90458C4.74123 5.90458 2.09853 4.9196 -0.000183105 3.26831C1.64789 5.36702 2.63608 8.00973 2.63608 10.8842C2.63608 13.7587 1.64789 16.4014 -0.000183105 18.5001C2.09853 16.852 4.74123 15.8638 7.6157 15.8638C10.4902 15.8638 13.1329 16.8488 15.2316 18.5001C13.5835 16.4014 12.5953 13.7587 12.5953 10.8842C12.5953 8.00973 13.5803 5.36702 15.2316 3.26831C13.1361 4.91638 10.4902 5.90458 7.6157 5.90458Z" fill="#00BC84"/>
</svg>